<?xml version="1.0"?>
<svg xmlns="http://www.w3.org/2000/svg" xmlns:xlink="http://www.w3.org/1999/xlink" xmlns:svgjs="http://svgjs.com/svgjs" version="1.1" width="512" height="512" x="0" y="0" viewBox="0 0 455.431 455.431" style="enable-background:new 0 0 512 512" xml:space="preserve" class=""><g>
<path xmlns="http://www.w3.org/2000/svg" style="" d="M405.493,412.764c-69.689,56.889-287.289,56.889-355.556,0c-69.689-56.889-62.578-300.089,0-364.089  s292.978-64,355.556,0S475.182,355.876,405.493,412.764z" fill="#e9b12b" data-original="#8dc640" class=""/>
<g xmlns="http://www.w3.org/2000/svg" style="opacity:0.2;">
	<path style="" d="M229.138,313.209c-62.578,49.778-132.267,75.378-197.689,76.8   c-48.356-82.489-38.4-283.022,18.489-341.333c51.2-52.622,211.911-62.578,304.356-29.867   C377.049,112.676,330.116,232.142,229.138,313.209z" fill="#ffffff" data-original="#ffffff" class=""/>
</g>
<g xmlns="http://www.w3.org/2000/svg">
	<path style="" d="M109.671,114.098h58.311v41.244l-9.956,118.044h-38.4l-9.956-118.044V114.098z M109.671,317.476   c0-15.644,12.8-28.444,28.444-28.444s28.444,12.8,28.444,28.444c0,15.644-12.8,28.444-28.444,28.444   C122.471,345.92,109.671,334.542,109.671,317.476z" fill="#ffffff" data-original="#ffffff" class=""/>
	<path style="" d="M298.827,276.231h-49.778v-24.178c0-8.533,1.422-15.644,2.844-19.911   c2.844-4.267,7.111-9.956,14.222-18.489l22.756-22.756c2.844-4.267,4.267-8.533,4.267-15.644c0-5.689-1.422-11.378-5.689-15.644   c-2.844-4.267-8.533-5.689-14.222-5.689c-5.689,0-9.956,2.844-14.222,7.111c-4.267,4.267-5.689,11.378-7.111,19.911h-52.622   c2.844-21.333,9.956-38.4,24.178-51.2c14.222-12.8,29.867-18.489,51.2-18.489c19.911,0,36.978,5.689,49.778,17.067   c12.8,11.378,18.489,27.022,18.489,46.933c0,8.533-1.422,15.644-2.844,19.911c-2.844,4.267-4.267,7.111-4.267,8.533   c-1.422,1.422-2.844,4.267-5.689,8.533c-2.844,4.267-5.689,5.689-5.689,7.111c-5.689,5.689-9.956,9.956-14.222,14.222   c-4.267,4.267-7.111,8.533-9.956,11.378c0,0-1.422,5.689-1.422,11.378V276.231z M246.204,317.476   c0-15.644,12.8-28.444,28.444-28.444c15.644,0,28.444,12.8,28.444,28.444c0,15.644-12.8,28.444-28.444,28.444   C259.004,345.92,246.204,334.542,246.204,317.476z" fill="#ffffff" data-original="#ffffff" class=""/>
</g>
<g xmlns="http://www.w3.org/2000/svg">
</g>
<g xmlns="http://www.w3.org/2000/svg">
</g>
<g xmlns="http://www.w3.org/2000/svg">
</g>
<g xmlns="http://www.w3.org/2000/svg">
</g>
<g xmlns="http://www.w3.org/2000/svg">
</g>
<g xmlns="http://www.w3.org/2000/svg">
</g>
<g xmlns="http://www.w3.org/2000/svg">
</g>
<g xmlns="http://www.w3.org/2000/svg">
</g>
<g xmlns="http://www.w3.org/2000/svg">
</g>
<g xmlns="http://www.w3.org/2000/svg">
</g>
<g xmlns="http://www.w3.org/2000/svg">
</g>
<g xmlns="http://www.w3.org/2000/svg">
</g>
<g xmlns="http://www.w3.org/2000/svg">
</g>
<g xmlns="http://www.w3.org/2000/svg">
</g>
<g xmlns="http://www.w3.org/2000/svg">
</g>
</g></svg>
