<?xml version="1.0" encoding="iso-8859-1"?>
<!-- Generator: Adobe Illustrator 19.0.0, SVG Export Plug-In . SVG Version: 6.00 Build 0)  -->
<svg version="1.1" id="Capa_1" xmlns="http://www.w3.org/2000/svg" xmlns:xlink="http://www.w3.org/1999/xlink" x="0px" y="0px"
	 viewBox="0 0 455.431 455.431" style="enable-background:new 0 0 455.431 455.431;" xml:space="preserve">
<path style="fill:#5CA4DA;" d="M405.493,412.764c-69.689,56.889-287.289,56.889-355.556,0c-69.689-56.889-62.578-300.089,0-364.089
	s292.978-64,355.556,0S475.182,355.876,405.493,412.764z"/>
<path style="fill:#6DAFE0;" d="M229.138,313.209c-62.578,49.778-132.267,75.378-197.689,76.8
	c-48.356-82.489-38.4-283.022,18.489-341.333c51.2-52.622,211.911-62.578,304.356-29.867
	C377.049,112.676,330.116,232.142,229.138,313.209z"/>
<g>
	<path style="fill:#FFFFFF;" d="M135.271,182.364h19.911v91.022h-19.911l-42.667-56.889v56.889H71.271v-91.022H89.76l44.089,58.311
		v-58.311H135.271z"/>
	<path style="fill:#FFFFFF;" d="M243.36,182.364v18.489h-45.511v18.489h41.244v17.067h-41.244v18.489h46.933v18.489h-66.844v-91.022
		L243.36,182.364L243.36,182.364z"/>
	<path style="fill:#FFFFFF;" d="M290.293,234.987l15.644-52.622h21.333l15.644,52.622l18.489-52.622h22.756l-31.289,91.022h-15.644
		l-19.911-62.578l-19.911,62.578H281.76l-31.289-91.022h21.333L290.293,234.987z"/>
</g>
<g>
</g>
<g>
</g>
<g>
</g>
<g>
</g>
<g>
</g>
<g>
</g>
<g>
</g>
<g>
</g>
<g>
</g>
<g>
</g>
<g>
</g>
<g>
</g>
<g>
</g>
<g>
</g>
<g>
</g>
</svg>
