<svg xmlns="http://www.w3.org/2000/svg" width="37" height="37" viewBox="0 0 37 37" fill="none">
  <g clip-path="url(#clip0_2041_52)">
    <path d="M19.5208 21.1388C20.9419 21.2069 22.269 21.6175 23.5325 22.2424C24.966 22.9649 26.2773 23.9079 27.4183 25.0371C27.872 25.4715 28.3189 25.4908 28.6659 25.112C28.9688 24.7853 28.9053 24.3294 28.5094 23.9279C28.0215 23.4366 27.4984 22.9817 26.9442 22.5668C24.7143 20.8825 22.2939 19.6791 19.4266 19.5963C19.2599 19.5906 19.1397 19.5736 19.1408 19.3558C19.1419 19.1381 19.2656 19.129 19.4289 19.1097C20.4509 18.9707 21.4853 18.946 22.5128 19.036C23.9419 19.1732 25.3109 19.5237 26.596 20.2031C27.7684 20.8416 28.7978 21.7131 29.621 22.7642C30.0145 23.2496 30.4319 23.3188 30.8107 23.0035C31.1896 22.6882 31.2089 22.2685 30.8346 21.7865C29.6331 20.2115 28.017 19.0019 26.1673 18.2931C23.9941 17.456 21.7438 17.2507 19.4482 17.5388C19.3472 17.5513 19.2213 17.6171 19.168 17.473C19.141 17.4178 19.1315 17.3556 19.1408 17.2947C19.1501 17.2339 19.1778 17.1774 19.2202 17.1328C19.297 17.0765 19.3835 17.035 19.4754 17.0103C21.4841 16.34 23.528 15.9487 25.6648 16.0745C28.1896 16.2231 30.4285 17.0625 32.3771 18.6674C32.7605 18.9827 33.2584 18.96 33.5465 18.6277C33.855 18.2727 33.8096 17.8507 33.39 17.4878C32.5994 16.801 31.7186 16.2256 30.7722 15.7774C27.661 14.3029 24.4274 14.1702 21.1189 14.9188C20.5291 15.0515 19.9461 15.2159 19.337 15.3725C19.4028 15.1876 19.5525 15.1694 19.6671 15.1127C20.3372 14.784 21.024 14.4902 21.7245 14.2326C23.6051 13.5362 25.5287 13.0553 27.5453 12.9906C29.0542 12.9259 30.5612 13.1571 31.9813 13.6711C32.4724 13.8526 32.8966 13.6632 33.0554 13.2345C33.2141 12.8057 32.9941 12.3861 32.5132 12.2057C31.4344 11.7943 30.3009 11.5439 29.1491 11.4628C26.7763 11.3063 24.4727 11.6783 22.2168 12.4065C21.2334 12.7241 20.2954 13.1494 19.3302 13.5101L19.2939 13.467C19.3495 13.4081 19.4094 13.3535 19.4731 13.3037C21.0656 12.2156 22.7552 11.277 24.5204 10.4999C25.9949 9.86472 27.5136 9.36566 29.1571 9.4099C29.5506 9.42124 29.8875 9.05716 29.9011 8.68287C29.917 8.24619 29.5801 7.88891 29.1072 7.86736C28.361 7.83553 27.614 7.90729 26.8875 8.0806C24.5056 8.62389 22.3586 9.72748 20.2682 10.9524C19.9393 11.1452 19.6353 11.3868 19.1907 11.5479C19.2378 11.4672 19.2893 11.3892 19.345 11.3142C20.985 9.51992 22.7771 7.9116 24.9582 6.791C25.5468 6.48703 25.7453 6.0685 25.5253 5.62275C25.3053 5.17701 24.8448 5.09421 24.2663 5.38797C22.9972 6.04022 21.8123 6.84463 20.7378 7.78343C20.2194 8.23712 19.7102 8.6908 19.1896 9.15356C19.1605 9.08619 19.1497 9.01234 19.1582 8.93946C19.1668 8.86658 19.1944 8.79725 19.2383 8.73844C19.9348 7.45224 20.6935 6.22275 22.016 5.46169C22.4312 5.22237 22.5105 4.80385 22.2803 4.40688C22.0682 4.04166 21.6701 3.91916 21.2595 4.12219C21.0067 4.2532 20.7641 4.40296 20.5336 4.5702C20.0255 4.92861 19.6262 5.40612 19.1499 5.93126C19.1499 5.19516 19.1567 4.54865 19.1499 3.90328C19.1419 3.40196 18.8368 3.0685 18.4002 3.05375C18.2951 3.04829 18.1901 3.06482 18.0918 3.10229C17.9936 3.13975 17.9042 3.19732 17.8295 3.27131C17.7547 3.3453 17.6963 3.43408 17.6578 3.53197C17.6194 3.62985 17.6018 3.73469 17.6062 3.83977C17.596 4.51009 17.6062 5.17927 17.6062 5.97096L17.123 5.42313C16.6644 4.88379 16.1045 4.43951 15.475 4.11538C15.3848 4.06679 15.2858 4.03683 15.1837 4.02728C15.0817 4.01772 14.9788 4.02878 14.8812 4.05978C14.7835 4.09078 14.6931 4.1411 14.6153 4.20774C14.5374 4.27438 14.4738 4.35598 14.4281 4.44771C14.3312 4.62325 14.308 4.83009 14.3635 5.02277C14.419 5.21546 14.5487 5.37823 14.7242 5.4753C16.0501 6.25111 16.8304 7.4806 17.5166 8.79175C17.5744 8.90517 17.6527 9.01859 17.5223 9.18646C16.9103 8.57364 16.2663 7.99362 15.593 7.44884C14.5743 6.61166 13.4667 5.88898 12.2901 5.29383C11.8365 5.06699 11.3828 5.22351 11.1809 5.63409C10.996 6.01519 11.1355 6.4496 11.554 6.66396C12.9914 7.40697 14.3227 8.33928 15.5124 9.43599C16.1816 10.0473 16.8735 10.6439 17.3873 11.4061C17.444 11.4299 17.5007 11.456 17.5143 11.5252C17.4996 11.456 17.444 11.4299 17.3873 11.4061L17.3419 11.4606C17.2682 11.4264 17.1963 11.3886 17.1264 11.3471C15.6089 10.4171 14.064 9.54714 12.4002 8.89043C10.8792 8.28703 9.33778 7.79818 7.66708 7.85262C7.15668 7.8685 6.82436 8.19289 6.83457 8.65224C6.84477 9.09799 7.17483 9.4099 7.66935 9.40083C8.15769 9.39213 8.64565 9.43317 9.12568 9.52332C11.0334 9.87152 12.7654 10.6768 14.4486 11.5978C15.483 12.1649 16.5094 12.7456 17.4497 13.4659L17.4157 13.5021C17.2886 13.4591 17.1571 13.425 17.0334 13.3706C13.8077 11.9642 10.4799 11.1101 6.9219 11.5229C5.96599 11.637 5.0291 11.8757 4.13513 12.233C4.03754 12.2649 3.94746 12.3163 3.87036 12.3841C3.79326 12.4519 3.73076 12.5347 3.68663 12.6274C3.64251 12.7201 3.61768 12.8209 3.61367 12.9235C3.60966 13.026 3.62654 13.1284 3.66329 13.2243C3.79826 13.6099 4.18277 13.8073 4.6183 13.7086C4.73395 13.6751 4.84756 13.635 4.95857 13.5883C5.95506 13.2336 6.99928 13.031 8.05612 12.9872C10.0852 12.8976 12.0508 13.2481 13.9722 13.8696C15.171 14.2587 16.354 14.6987 17.4406 15.3441L17.4191 15.3691C17.3118 15.3561 17.2053 15.3368 17.1004 15.3112C14.7185 14.5797 12.289 14.2655 9.79373 14.6137C7.39898 14.9393 5.14493 15.9348 3.29128 17.4855C3.14243 17.597 3.03795 17.7577 2.99641 17.939C2.95488 18.1203 2.97898 18.3105 3.06443 18.4757C3.2391 18.808 3.56348 18.943 3.96613 18.8636C4.16462 18.8239 4.30639 18.6844 4.44477 18.5676C6.59978 16.8095 9.09506 16.0473 11.8387 16.028C13.0332 16.0272 14.2233 16.1712 15.3831 16.4568C16.0551 16.6217 16.718 16.8216 17.3692 17.0556C17.5756 17.1271 17.6062 17.2632 17.571 17.4356C17.5359 17.608 17.3816 17.549 17.2705 17.54C16.3018 17.4193 15.3238 17.3916 14.3499 17.4572C12.3922 17.5933 10.5593 18.1025 8.87161 19.1074C7.66563 19.8254 6.6149 20.7767 5.78088 21.9056C5.56311 22.1982 5.52794 22.5056 5.72189 22.8129C5.80101 22.9502 5.92194 23.0586 6.06702 23.1222C6.2121 23.1859 6.37373 23.2015 6.52832 23.1668C6.8028 23.1203 6.97521 22.9241 7.13173 22.7131C7.9462 21.6359 8.99646 20.7594 10.202 20.1509C12.458 18.9883 14.8637 18.8159 17.334 19.1052C17.4973 19.1245 17.5824 19.1902 17.579 19.3626C17.5756 19.535 17.4656 19.5895 17.3068 19.5827C16.8316 19.5795 16.3574 19.6244 15.8913 19.7165C12.8391 20.2632 10.354 21.8534 8.15025 23.9517C7.74534 24.3373 7.72265 24.7456 8.04476 25.1006C8.38503 25.4704 8.78541 25.4738 9.22208 25.078C10.2429 24.1536 11.2909 23.2791 12.4954 22.6031C13.945 21.7899 15.4705 21.2296 17.1457 21.1286C17.4746 21.1093 17.6175 21.1842 17.5869 21.5426C17.5563 21.901 17.5869 22.2753 17.5869 22.6428C17.5869 23.3993 17.5869 23.4004 16.8395 23.4367C16.514 23.4538 16.2894 23.5638 16.2894 23.9415C16.2894 27.3112 16.2758 30.6821 16.3007 34.0519C16.3109 35.3676 17.6618 36.2965 18.9196 35.9256C19.886 35.6568 20.4372 34.8628 20.4383 33.7286C20.4383 30.6435 20.4383 27.5585 20.4383 24.4734C20.4383 23.4889 20.4383 23.4798 19.4618 23.4526C19.2054 23.4458 19.1363 23.3573 19.1431 23.1124C19.1567 22.5691 19.1624 22.0246 19.1431 21.4825C19.1295 21.1921 19.2463 21.1275 19.5208 21.1388Z" fill="#FFC270"/>
    <path d="M3.48706 8.56106C3.84547 8.62798 4.10634 8.44764 4.31957 8.16862C5.70618 6.34581 7.47749 4.851 9.50747 3.79055C13.1608 1.86239 17.0443 1.23403 21.1309 1.80908C23.7343 2.16198 26.2279 3.08443 28.4341 4.51078C29.9315 5.4779 31.2533 6.69301 32.3426 8.10397C32.7305 8.60416 33.1672 8.71191 33.5608 8.40908C33.9544 8.10624 33.9646 7.65369 33.5903 7.16144C32.7207 6.0127 31.7006 4.98611 30.5574 4.10927C26.9755 1.34859 22.8867 0.0952778 18.4009 0.0260907C17.464 0.0131655 16.5275 0.0749878 15.6005 0.210968C12.8061 0.571572 10.1211 1.52561 7.72562 3.00908C5.95242 4.10356 4.39129 5.50907 3.1173 7.15804C2.93243 7.39849 2.7691 7.64915 2.86551 7.97807C2.90078 8.12537 2.97845 8.2591 3.08892 8.36271C3.19939 8.46633 3.33781 8.53529 3.48706 8.56106Z" fill="#FFC270"/>
    <path d="M36.4295 13.3833C36.2468 12.4094 35.9578 11.4585 35.5675 10.5477C35.3702 10.085 34.9653 9.89783 34.5524 10.0521C34.1396 10.2063 33.9638 10.6192 34.1078 11.0944C34.1464 11.2237 34.2042 11.3485 34.253 11.4744C35.0991 13.6612 35.36 15.9194 34.9437 18.223C34.253 22.0555 32.1479 24.9908 29.0458 27.2547C28.0798 27.9584 27.0373 28.5505 25.938 29.0196C25.65 29.1421 25.405 29.302 25.3585 29.6411C25.3165 29.9394 25.3709 30.2082 25.6284 30.4056C25.921 30.6324 26.2171 30.6075 26.5437 30.4646C29.2386 29.2827 31.5513 27.5905 33.3899 25.2869C35.5233 22.6124 36.6621 19.5681 36.695 16.1326C36.7033 15.2094 36.6143 14.2879 36.4295 13.3833Z" fill="#FFC270"/>
    <path d="M10.7089 28.9807C7.14748 27.3667 4.36866 24.9259 2.72405 21.3202C1.66015 18.9883 1.36298 16.5429 1.76903 14.0091C1.94409 13.021 2.22198 12.0539 2.59815 11.1236C2.78643 10.6336 2.60835 10.231 2.16374 10.0529C1.75882 9.89071 1.33349 10.0903 1.14294 10.5418C0.408114 12.3129 0.0185182 14.2081 -0.00488281 16.1255C0.0155331 16.3818 0.0461602 16.6382 0.0552339 16.8956C0.107833 18.2119 0.361427 19.5124 0.807219 20.752C1.8507 23.7338 3.69153 26.1384 6.15732 28.0835C7.39232 29.0401 8.74093 29.8401 10.1724 30.4654C10.6363 30.6729 11.0378 30.5629 11.2738 30.1864C11.5585 29.7406 11.3169 29.2563 10.7089 28.9807Z" fill="#FFC270"/>
  </g>
  <defs>
    <clipPath id="clip0_2041_52">
      <rect width="36.6941" height="36" fill="white" transform="translate(0 0.0234375)"/>
    </clipPath>
  </defs>
</svg>